<?xml version="1.0" encoding="UTF-8"?>
<svg id="Capa_1" data-name="Capa 1" xmlns="http://www.w3.org/2000/svg" viewBox="0 0 99.45 98.91">
  <defs>
    <style>
      .cls-1 {
        fill: #0000d2;
        stroke-width: 0px;
      }
    </style>
  </defs>
  <polygon class="cls-1" points="49.73 8.91 60.12 0 66 12.37 79.12 8.46 79.45 22.14 93.03 23.91 87.77 36.55 99.45 43.68 89.51 53.09 97.28 64.36 84.37 68.91 86.88 82.36 73.24 81.27 70.06 94.58 58.04 88.03 49.73 98.91 41.41 88.03 29.39 94.58 26.21 81.27 12.57 82.36 15.09 68.91 2.17 64.36 9.95 53.09 0 43.68 11.68 36.55 6.42 23.91 20 22.14 20.34 8.46 33.46 12.37 39.33 0 49.73 8.91"/>
</svg>