<?xml version="1.0" encoding="UTF-8"?>
<svg id="Capa_1" data-name="Capa 1" xmlns="http://www.w3.org/2000/svg" viewBox="0 0 492.3 490.28">
  <defs>
    <style>
      .cls-1 {
        fill: #0000d2;
        stroke-width: 0px;
      }
    </style>
  </defs>
  <path class="cls-1" d="m480.26,217.21c-16.45-14.58-33.36-28.65-50.03-42.98-8.28-7.12-8.56-8.67-3.35-18.14,7.08-12.86,11.51-26.58,12.33-41.22,1.63-29.26-8.8-53.96-28.83-75.08-4.02-4.24-7.21-9.51-9.81-14.79-3.29-6.69-7.02-12.79-12.89-17.49-11.18-8.96-27.82-10.03-40.84-2.55-12.78,7.34-20.34,22.78-18.3,36.69,2.51,17.12,12.42,27.41,28.77,31.96,16.02,4.45,25.29,14.84,27.08,31.39.91,8.41-1.34,16.22-6.48,23.96-13.45-11.42-26.33-22.47-39.34-33.37-10.33-8.66-20.59-17.43-31.33-25.57-7.03-5.32-12.98-4.68-19.31,1.47-5.35,5.2-10.61,10.68-14.88,16.76-2.49,3.55-3.9,8.47-4.12,12.86-.34,6.79,5.06,10.87,9.63,14.99,5.47,4.93,11.07,9.71,17.11,14.99-29.38,17.75-57.78,34.9-86.35,52.16-1.61-2.62-2.84-4.59-4.04-6.57-23.78-39.3-47.54-78.6-71.33-117.89-4.64-7.66-9.95-9.03-17.51-4.47-18.52,11.18-37.03,22.38-55.52,33.6-7.89,4.79-9.18,9.96-4.41,17.86,23.82,39.46,47.68,78.91,71.5,118.37,1.15,1.91,2.12,3.94,3.26,6.09-1.89,1.2-3.26,2.11-4.67,2.96-39.86,24.13-79.73,48.25-119.58,72.4-7.82,4.74-8.97,9.6-4.27,17.44,3.08,5.14,6.08,10.33,9.3,15.37,10.15,15.9,18.47,32.97,29.81,47.29-1,3.49-2.79,6.78-2.7,10.02.2,7.35-2.38,13.28-7.07,18.61-4.29,4.88-8.51,9.81-12.78,14.7-5.93,6.78-7.07,14.07-2.46,22.02.67,1.15,1.65,2.32,1.75,3.55.15,1.85.3,4.25-.68,5.56-3.59,4.79-7.62,9.24-11.54,13.78-3.97,4.59-5.27,9.84-4.03,16.23,6.27.52,11.48-.85,15.45-5.7,2.53-3.09,5.19-6.08,7.75-9.15,4-4.81,8.66-6.72,15-4.68,7.23,2.32,13.83.75,19.14-4.95,2.04-2.19,4.05-4.43,5.87-6.81,7.2-9.46,15.96-16.75,27.09-21.37,3.98-1.66,7.82-4.61,10.68-7.88,26.59-30.51,52.94-61.23,79.37-91.88,2.56-2.97,5.2-5.87,8.19-9.23,1.39,2.15,2.39,3.63,3.31,5.16,19.91,32.88,39.8,65.78,59.72,98.65,4.73,7.81,9.66,9.08,17.43,4.41,18.83-11.32,37.61-22.7,56.39-34.11,7.07-4.3,8.35-9.28,4.17-16.36-4.91-8.31-9.96-16.53-14.92-24.81-.65-1.09-1.06-2.32-1.58-3.48,2.27.38,3.56,1.37,4.8,2.42,7.24,6.14,14.4,12.38,21.73,18.4,5.59,4.58,11.63,8.28,19.21,8.65,11.51.55,18.94-6.4,25.66-14.19,32.21-37.32,64.33-74.72,96.36-112.2,13.05-15.28,12.13-30.52-2.92-43.85ZM65.88,435.2c-5.47,6.26-11.08,12.39-16.46,18.73-1.96,2.31-3.62,2.49-5.83.6-4.29-3.67-8.73-7.17-12.85-11.01-.76-.71-.98-3.24-.34-4.01,6.45-7.77,13.13-15.35,20.1-23.39,6.04,5.17,11.8,10.1,17.91,15.34-.94,1.4-1.61,2.68-2.53,3.74Zm20.55-8.69c-11.27-9.67-22.1-18.95-33.46-28.69,7.42-8.59,14.64-16.97,22.28-25.81,11.13,9.55,21.93,18.82,33.24,28.52-7.4,8.72-14.56,17.15-22.06,25.99Zm33.64-39.61c-.58.65-3.15.47-4.02-.25-9.17-7.66-18.19-15.52-28.12-24.07,7.24-4.37,13.71-8.34,20.27-12.13.75-.43,2.42-.24,3.09.33,7.49,6.3,14.87,12.73,22.74,19.54-4.76,5.73-9.22,11.29-13.97,16.58Zm25.8-29.97c-.52.59-2.65.65-3.33.1-6.15-5.02-12.15-10.24-18.92-16.02,7.16-4.32,13.35-8.16,19.67-11.74.98-.55,3.03-.4,3.91.29,4.15,3.27,8.06,6.83,12.6,10.76-4.79,5.77-9.25,11.29-13.93,16.61Zm33.07-38.26c-3.11,2.89-5.61,6.43-8.72,10.07-3.69-3.18-6.88-5.94-10.78-9.31,6.65-4.06,12.62-7.69,18.52-11.29,4.18,3.56,5.16,6.64.98,10.53ZM397.91,55.97c2.13-2.51,3.7-1.09,5.43.36,9.87,8.3,15.03,19.34,17.9,31.55,4.67,19.9,3.58,39.29-6.19,57.65-5.46,10.26-6.1,10.3-14.62,2.88-8.49-7.4-8.52-7.52-4.68-18.23,6.8-18.96,4.89-36.92-6.13-53.85-1.27-1.95-2.54-3.9-4.11-6.32,4.28-4.83,8.43-9.37,12.41-14.06Zm-32.77,3.02c-12.07-.08-21.9-10-21.77-21.98.13-11.99,10.09-21.75,22.12-21.67,12.23.08,21.58,9.65,21.54,22.03-.04,12.27-9.58,21.69-21.89,21.61Zm7.52,85.83c26.32,22.57,52.65,45.14,79.37,68.06-5.4,6.25-10.46,12.1-15.85,18.33-18.27-15.67-35.8-30.72-53.67-46.05,7.59-6.62,5.46-13.2.89-20.11-4.17-6.3-7.85-12.92-11.74-19.4l1.01-.82Zm53.61,98.2c-22.44,26.13-44.61,51.94-67.2,78.25-6.08-5.19-11.85-10.11-18.31-15.61,22.3-26.07,44.39-51.9,66.94-78.26,6.27,5.27,12.18,10.24,18.57,15.62Zm-79.77-34.85c5.63-5.8,13.41-9.54,20.37-13.97.78-.49,2.89.22,3.84,1.02,8.37,7.1,16.62,14.34,25.51,22.07-22.37,26.09-44.6,52.02-67.17,78.35-11.28-9.66-22.1-18.92-33.3-28.52,6.45-7.61,12.53-14.84,18.66-22.02,10.6-12.4,20.75-25.24,32.08-36.93Zm-62.22-107.27c5.19-6.18,10.21-12.18,15.52-18.5,10.66,9.14,20.81,17.84,31.57,27.06-7.1,4.3-13.54,8.32-20.14,12.04-.89.5-3-.11-3.95-.91-7.52-6.27-14.89-12.72-22.99-19.69Zm19.07,131.45c.29.32.59.65.88.97-6.59,7.71-13.17,15.43-20.2,23.66-2.89-2.51-5.53-4.81-8.77-7.61,9.88-5.99,18.98-11.51,28.08-17.02Zm29.84,118.95c-6.15-5.2-12.07-10.18-17.96-15.2-6.84-5.84-13.93-11.42-20.38-17.66-4.83-4.67-9.47-9.78-13.08-15.41-8.79-13.7-16.93-27.82-25.27-41.65,2.93-3.62,5.3-3.22,8.51-.45,26.81,23.21,53.77,46.24,80.68,69.34.98.85,1.89,1.79,3.08,2.92-5.16,5.99-10.13,11.77-15.57,18.1Zm137.05-98.6c-31.06,36.29-62.26,72.46-93.4,108.67-.87,1.01-1.75,2.01-2.64,3-9.98,11.16-15.72,9.77-26.75-1.43-2.79-2.84.05-4.54,1.5-6.25,10.12-11.93,20.34-23.78,30.53-35.65,26.34-30.69,52.67-61.38,79.02-92.06,1.29-1.5,2.68-2.93,4.31-4.7,1.31.68,2.23,1.08,3.07,1.61,13.32,8.27,14.54,14.91,4.35,26.81Z"/>
</svg>